<svg xmlns="http://www.w3.org/2000/svg" xmlns:xlink="http://www.w3.org/1999/xlink" width="18.715" height="18.715" viewBox="0 0 18.715 18.715">
  <defs>
    <clipPath id="clip-path">
      <rect id="Rectangle_760" data-name="Rectangle 760" width="18.715" height="18.715" transform="translate(0 0)" fill="#fff" stroke="#707070" stroke-width="1"/>
    </clipPath>
  </defs>
  <g id="instagram" clip-path="url(#clip-path)">
    <rect id="Rectangle_759" data-name="Rectangle 759" width="19.529" height="18.715" rx="5" transform="translate(0 0)"/>
    <path id="instagram-brands" d="M10.328,36.891a5.332,5.332,0,1,0,5.332,5.332A5.324,5.324,0,0,0,10.328,36.891Zm0,8.8a3.467,3.467,0,1,1,3.467-3.467A3.473,3.473,0,0,1,10.328,45.69Zm6.794-9.017a1.244,1.244,0,1,1-1.244-1.244A1.241,1.241,0,0,1,17.122,36.673Zm3.532,1.262a6.155,6.155,0,0,0-1.68-4.358,6.2,6.2,0,0,0-4.358-1.68c-1.717-.1-6.864-.1-8.581,0a6.186,6.186,0,0,0-4.358,1.675A6.175,6.175,0,0,0,0,37.931c-.1,1.717-.1,6.864,0,8.581a6.155,6.155,0,0,0,1.68,4.358,6.2,6.2,0,0,0,4.358,1.68c1.717.1,6.864.1,8.581,0a6.155,6.155,0,0,0,4.358-1.68,6.2,6.2,0,0,0,1.68-4.358C20.751,44.795,20.751,39.653,20.654,37.936ZM18.435,48.354a3.51,3.51,0,0,1-1.977,1.977c-1.369.543-4.617.418-6.13.418s-4.766.121-6.13-.418a3.51,3.51,0,0,1-1.977-1.977c-.543-1.369-.418-4.617-.418-6.13s-.121-4.766.418-6.13A3.51,3.51,0,0,1,4.2,34.116c1.369-.543,4.617-.418,6.13-.418s4.766-.121,6.13.418a3.51,3.51,0,0,1,1.977,1.977c.543,1.369.418,4.617.418,6.13S18.978,46.99,18.435,48.354Z" transform="translate(-0.765 -32.706)" fill="#fff"/>
  </g>
</svg>
