<svg xmlns="http://www.w3.org/2000/svg" width="20.597" height="16.69" viewBox="0 0 20.597 16.69">
  <path id="twitter" d="M18.5,53.161c.013.183.013.366.013.549A11.93,11.93,0,0,1,6.505,65.722a11.917,11.917,0,0,1-6.48-1.9,8.734,8.734,0,0,0,1.019.052,8.459,8.459,0,0,0,5.241-1.8,4.229,4.229,0,0,1-3.947-2.927,5.322,5.322,0,0,0,.8.065,4.463,4.463,0,0,0,1.111-.144A4.212,4.212,0,0,1,.863,54.963V54.91a4.251,4.251,0,0,0,1.908.536A4.228,4.228,0,0,1,1.463,49.8a11.992,11.992,0,0,0,8.7,4.417,4.766,4.766,0,0,1-.1-.967,4.224,4.224,0,0,1,7.3-2.887,8.308,8.308,0,0,0,2.679-1.019,4.211,4.211,0,0,1-1.856,2.326,8.469,8.469,0,0,0,2.431-.653A9.067,9.067,0,0,1,18.5,53.2Z" transform="translate(-0.025 -49.031)"/>
</svg>
