<svg xmlns="http://www.w3.org/2000/svg" xmlns:xlink="http://www.w3.org/1999/xlink" width="254" height="198" viewBox="0 0 254 198">
  <defs>
    <filter id="Rectangle_85" x="0" y="0" width="254" height="198" filterUnits="userSpaceOnUse">
      <feOffset dx="8" dy="8" input="SourceAlpha"/>
      <feGaussianBlur result="blur"/>
      <feFlood/>
      <feComposite operator="in" in2="blur"/>
      <feComposite in="SourceGraphic"/>
    </filter>
  </defs>
  <g id="notification_20euro" transform="translate(-631 -5014)">
    <g id="Notification_" data-name="Notification " transform="translate(631 5014)">
      <g transform="matrix(1, 0, 0, 1, 0, 0)" filter="url(#Rectangle_85)">
        <g id="Rectangle_85-2" data-name="Rectangle 85" fill="#fff" stroke="#000" stroke-width="2">
          <rect width="246" height="190" rx="16" stroke="none"/>
          <rect x="1" y="1" width="244" height="188" rx="15" fill="none"/>
        </g>
      </g>
    </g>
    <g id="_20euro_de_remise" data-name="20euro_de_remise" transform="translate(678.345 5031.75)">
      <g id="Calque_1" data-name="Calque 1" transform="translate(0 0.001)">
        <path id="Tracé_301" data-name="Tracé 301" d="M81.65,1.95l8.975,11.09a5.255,5.255,0,0,0,5.975,1.6l13.305-5.115a5.26,5.26,0,0,1,7.08,4.09l2.23,14.09a5.255,5.255,0,0,0,4.375,4.375l14.09,2.23a5.26,5.26,0,0,1,4.09,7.08l-5.115,13.32a5.26,5.26,0,0,0,1.6,6l11.09,8.975a5.265,5.265,0,0,1,0,8.18l-11.09,8.975a5.26,5.26,0,0,0-1.6,6l5.115,13.32a5.26,5.26,0,0,1-4.09,7.08l-14.09,2.23a5.255,5.255,0,0,0-4.375,4.375l-2.23,14.09a5.26,5.26,0,0,1-7.08,4.065l-13.32-5.115a5.255,5.255,0,0,0-5.975,1.6L81.65,145.55a5.265,5.265,0,0,1-8.18,0L64.5,134.46a5.25,5.25,0,0,0-6-1.6L45.205,138a5.265,5.265,0,0,1-7.085-4.09L35.905,119.8a5.255,5.255,0,0,0-4.375-4.375l-14.125-2.23a5.26,5.26,0,0,1-4.09-7.08l5.14-13.32a5.26,5.26,0,0,0-1.605-6L5.76,77.84a5.265,5.265,0,0,1,0-8.18l11.09-8.975a5.26,5.26,0,0,0,1.6-6L13.335,41.39a5.26,5.26,0,0,1,4.07-7.08L31.5,32.08a5.255,5.255,0,0,0,4.41-4.375l2.23-14.09a5.265,5.265,0,0,1,7.07-4.09L58.52,14.64a5.25,5.25,0,0,0,6-1.6L73.47,1.95a5.265,5.265,0,0,1,8.18,0Z" transform="translate(-1.905 -0.001)" fill="#fcc46b"/>
        <path id="Tracé_302" data-name="Tracé 302" d="M64.65,210.56v-15h3.82a8.121,8.121,0,0,1,3.96.7c1.36.795,1.58,2.255,1.58,3.695v6.66a3.57,3.57,0,0,1-1.5,3.24,5.61,5.61,0,0,1-3.12.7Zm3.5-2.7c2.36.16,2.38-.8,2.32-2.8v-4.9c0-1.76-.6-1.86-2.32-1.9Z" transform="translate(-32.325 -97.78)" fill="#fff"/>
        <path id="Tracé_303" data-name="Tracé 303" d="M86.89,210.56v-15h8.055v3H90.41v2.76h4.4v3h-4.4v3.24h4.78v3Z" transform="translate(-43.445 -97.78)" fill="#fff"/>
        <path id="Tracé_304" data-name="Tracé 304" d="M120.27,210.56h-3.5v-15h5.115c2.88,0,4.32,1.16,4.32,4.135,0,1.6-.38,2.74-1.86,3.42v.04a2.07,2.07,0,0,1,1.74,1.94c.1,1.2.12,3.78.32,4.74a1.31,1.31,0,0,0,.34.5v.2H122.9a3.165,3.165,0,0,1-.2-.86c-.06-1.32,0-2.56-.08-3.5s-.38-1.5-1.2-1.58h-1.16Zm0-8.62h1.2c1,0,1.26-.94,1.26-1.86,0-1.78-.74-1.86-2.46-1.82Z" transform="translate(-58.385 -97.78)" fill="#fff"/>
        <path id="Tracé_305" data-name="Tracé 305" d="M139.13,210.56v-15h8.06v3h-4.54v2.76h4.415v3h-4.4v3.24h4.78v3Z" transform="translate(-69.565 -97.78)" fill="#fff"/>
        <path id="Tracé_306" data-name="Tracé 306" d="M159.25,210.56v-15h4.96l1.82,8.855h.04l1.88-8.855h4.92v15h-3.36l.36-11.76h-.04l-2.5,11.76h-2.62l-2.4-11.78h-.04l.32,11.76Z" transform="translate(-79.625 -97.78)" fill="#fff"/>
        <path id="Tracé_307" data-name="Tracé 307" d="M190.45,210.56v-15h3.5v15Z" transform="translate(-95.225 -97.78)" fill="#fff"/>
        <path id="Tracé_308" data-name="Tracé 308" d="M203.47,205.185v1.06c0,.86.28,1.62,1.4,1.62.82,0,1.18-.74,1.18-1.5,0-1.26-1.04-1.74-1.96-2.3a10.09,10.09,0,0,1-2.66-1.96,4.38,4.38,0,0,1-1-3c0-2.815,1.7-4.255,4.42-4.255,3.06,0,4.62,2.035,4.46,4.855h-3.24c-.04-.88,0-2.08-1.16-2.16a1.04,1.04,0,0,0-1.22,1c-.1.9.36,1.36,1.06,1.84a24.735,24.735,0,0,1,3.28,2.12,4.405,4.405,0,0,1,1.3,3.58c0,2.88-1.6,4.5-4.5,4.5-3.22,0-4.58-1.8-4.58-3.78v-1.6Z" transform="translate(-100.125 -97.425)" fill="#fff"/>
        <path id="Tracé_309" data-name="Tracé 309" d="M221.37,210.56v-15h8.06v3h-4.54v2.76h4.4v3h-4.4v3.24h4.8v3Z" transform="translate(-110.685 -97.78)" fill="#fff"/>
        <rect id="Rectangle_759" data-name="Rectangle 759" width="151.31" height="37" rx="14.72" transform="translate(0 55.25)" fill="#f29060"/>
        <path id="Tracé_310" data-name="Tracé 310" d="M86.4,127.62v-1.56c0-5.92,3.16-9.28,9.2-9.28,5.4,0,8.685,2.68,8.685,8.24,0,3.76-1.2,5.92-3.76,8.6l-2.6,2.5c-1.085,1.04-3.6,3.56-3.96,5.24h10.36v5.4H86.36v-1c0-4.96,3.08-9.24,6.285-12.76l3.04-3.2a6.593,6.593,0,0,0,1.915-5.08c0-1.5-.675-3.12-2.5-2.96-2.115.12-2.32,2.88-2.32,4.4v1.44Z" transform="translate(-43.18 -58.39)" fill="#fff"/>
        <path id="Tracé_311" data-name="Tracé 311" d="M126.76,125.24c0-6,3.2-8.5,8.925-8.5,7.2,0,8.96,3.5,8.84,10.2v10.8c0,6.56-2.08,9.72-8.92,9.72-5.605,0-8.845-2.5-8.845-8.28Zm11.085,0c0-.44.24-3.5-2.16-3.5-2.165,0-2.24,1.8-2.24,3.5v13.5c0,1.76,0,3.76,2.24,3.76,2.28-.08,2.16-2.72,2.16-3.76Z" transform="translate(-63.38 -58.37)" fill="#fff"/>
        <path id="Tracé_312" data-name="Tracé 312" d="M203.47,123.84a5.293,5.293,0,0,0-4.28-1.64c-2.76,0-4.205,1.64-4.6,5h7.755l-1.16,3.84h-6.96a11.147,11.147,0,0,0-.035,1.12c0,.44.035.92.035,1.28h6.245l-1.16,3.88h-4.68c.44,3.28,1.92,4.8,4.6,4.8a5.922,5.922,0,0,0,4.24-1.5v5.64c-.72.56-2.5,1.24-5.36,1.24-5.4,0-8.605-3.2-9.5-10.16h-2.92l1.16-3.88h1.4a12.058,12.058,0,0,1-.04-1.28,10.5,10.5,0,0,1,.04-1.12h-2.56l1.16-3.84h1.685c.875-6.5,3.76-10.4,9.56-10.4a9.37,9.37,0,0,1,5.36,1.36Z" transform="translate(-92.845 -58.41)" fill="#fff"/>
        <rect id="Rectangle_760" data-name="Rectangle 760" width="23" height="23" rx="4.53" transform="translate(63.31 27)" opacity="0.1"/>
        <path id="Tracé_313" data-name="Tracé 313" d="M139.645,61.2h3.6v5.79h5.225V70.6h-5.225v6h-3.6v-6H134.42V67h5.225Z" transform="translate(-67.21 -30.6)" fill="#fff"/>
      </g>
    </g>
  </g>
</svg>
