<svg xmlns="http://www.w3.org/2000/svg" width="60.004" height="60.004" viewBox="0 0 60.004 60.004">
  <g id="picto_coin" transform="translate(0 0)">
    <circle id="Ellipse_29" data-name="Ellipse 29" cx="21.215" cy="21.215" r="21.215" transform="translate(0 30.002) rotate(-45)" fill="#ffc569"/>
    <g id="coins" transform="translate(-60.846 17.396)">
      <path id="Tracé_342" data-name="Tracé 342" d="M97.253,4.173c0,2.3-3.15,4.173-7.036,4.173S83.18,6.478,83.18,4.173,86.33,0,90.216,0s7.036,1.868,7.036,4.173" transform="translate(-3.837)" fill="#fff" fill-rule="evenodd"/>
      <path id="Tracé_343" data-name="Tracé 343" d="M307.352,245.43c0,2.3-3.15,4.173-7.036,4.173s-7.036-1.868-7.036-4.173,3.15-4.173,7.036-4.173,7.036,1.868,7.036,4.173" transform="translate(-204.866 -230.84)" fill="#fff" fill-rule="evenodd"/>
      <path id="Tracé_344" data-name="Tracé 344" d="M289.324,364.28c-.035,1.345-.035,1.518-.035,2.621,0,.586.552,1,1.069,1.414,1.724,1.449,3.656,1.724,6.036,1.759,2.794.069,6.519-1.311,7.071-3.208.242-.793.069-.9.1-2.38a3.937,3.937,0,0,1-.345.655c-2.621,3.69-12.8,3.415-13.9-.862Z" transform="translate(-201.048 -348.552)" fill="#fff" fill-rule="evenodd"/>
      <path id="Tracé_345" data-name="Tracé 345" d="M290.09,444.994c.1,1.621.035.966.1,2.208.069,1.38,3.621,2.759,7.036,2.725,2.932-.035,6.691-1.138,6.795-2.759a9.989,9.989,0,0,0,.207-2.207c-2.552,3.552-11.83,3.587-14.141.035Z" transform="translate(-201.814 -425.748)" fill="#fff" fill-rule="evenodd"/>
      <path id="Tracé_346" data-name="Tracé 346" d="M79.239,122.226a7.7,7.7,0,0,0,0,2c.552,2.414,4.1,3.759,7.209,3.9,3.656.1,6.795-1.931,6.864-3.277.035-.828.173-1.656.173-2.552-.586,1.9-3.518,3.38-7.105,3.415-2.828,0-6.14-.862-7.139-3.484Z" transform="translate(0 -116.949)" fill="#fff" fill-rule="evenodd"/>
      <path id="Tracé_347" data-name="Tracé 347" d="M79.765,190.13a11.479,11.479,0,0,0,0,1.931c.517,2.449,4.139,3.932,7.243,3.932.1,0,1.552.069,1.587.035a2.915,2.915,0,0,1,.552-1.38,8.589,8.589,0,0,1,4.415-2.414c.1-.035.31-1.828.1-1.449-.448.793-2.518,2.794-6.76,2.759-3.1-.035-6.07-1.242-7.139-3.415Z" transform="translate(-0.526 -181.921)" fill="#fff" fill-rule="evenodd"/>
      <path id="Tracé_348" data-name="Tracé 348" d="M79.765,263.616a11.333,11.333,0,0,0,0,1.931c.828,4.139,8.623,3.759,8.623,3.725.1-1.138.069-1.586.173-2.552,0,0-1.138.035-1.69,0-2.38-.1-5.415-.759-7.105-3.1Z" transform="translate(-0.526 -252.234)" fill="#fff" fill-rule="evenodd"/>
      <path id="Tracé_349" data-name="Tracé 349" d="M80.785,337.12s.035,2.345.069,2.345c1,3.242,8.588,3.07,8.588,3.035.035-1.035-.069-2.414-.069-2.414C86.579,340.155,82.613,339.707,80.785,337.12Z" transform="translate(-1.546 -322.565)" fill="#fff" fill-rule="evenodd"/>
    </g>
  </g>
</svg>
