<svg id="Logo_plantz" xmlns="http://www.w3.org/2000/svg" width="126.654" height="30" viewBox="0 0 126.654 30">
  <g id="Calque_1" data-name="Calque 1">
    <path id="Tracé_1" data-name="Tracé 1" d="M7.523,32.766H0V4.13H12.8q5.156,0,8.139,2.518T23.92,14.2a8.192,8.192,0,0,1-3.062,6.74A12.474,12.474,0,0,1,12.8,23.416H7.523Zm4.136-22.94H7.523v8.6h4.136a6.718,6.718,0,0,0,3.87-1.094,3.658,3.658,0,0,0,1.612-3.23,3.593,3.593,0,0,0-1.586-3.23A6.937,6.937,0,0,0,11.659,9.827Z" transform="translate(0 -3.304)" fill="#52b375"/>
    <path id="Tracé_2" data-name="Tracé 2" d="M131.19,32.766V4.13H138.5V32.766Z" transform="translate(-106.371 -3.304)" fill="#52b375"/>
    <path id="Tracé_3" data-name="Tracé 3" d="M190.309,66.942q-4.566,0-6.314-3.036a16.527,16.527,0,0,1-1.746-8.247A21.816,21.816,0,0,1,183,49.588a7.713,7.713,0,0,1,2.526-4,7.438,7.438,0,0,1,4.782-1.424,8.785,8.785,0,0,1,3.574.618A6.767,6.767,0,0,1,196,46.2a3.374,3.374,0,0,1,.734,1.934h.666V44.16h7.737V66.4H197.4v-3h-.666a3.264,3.264,0,0,1-.812,1.772,6.029,6.029,0,0,1-2.15,1.236A9.619,9.619,0,0,1,190.309,66.942Zm3.172-6.18a4.014,4.014,0,0,0,2.66-.724,3.216,3.216,0,0,0,1.058-1.912,13.924,13.924,0,0,0,0-4.864,3.078,3.078,0,0,0-1.048-1.854,4.133,4.133,0,0,0-2.66-.7,3.987,3.987,0,0,0-2.66.726,3.152,3.152,0,0,0-1.048,1.854,12.855,12.855,0,0,0-.216,2.418,13.277,13.277,0,0,0,.216,2.444,3.176,3.176,0,0,0,1.048,1.882A3.947,3.947,0,0,0,193.481,60.763Z" transform="translate(-148.048 -36.942)" fill="#52b375"/>
    <path id="Tracé_4" data-name="Tracé 4" d="M314.17,66.372V44.128h7.737V48.1h.664a2.9,2.9,0,0,1,.788-1.934,6.536,6.536,0,0,1,2.122-1.424A8.618,8.618,0,0,1,329,44.12a7.7,7.7,0,0,1,3.9.86,6.014,6.014,0,0,1,2.258,2.238,8.977,8.977,0,0,1,1.046,2.956,20.456,20.456,0,0,1,.3,3.062q.026,1.478.028,2.5V66.372h-7.307V55.681a14.2,14.2,0,0,0-.188-2.312,3.8,3.8,0,0,0-.942-1.96,3.346,3.346,0,0,0-2.578-.834,3.267,3.267,0,0,0-2.526.834,3.626,3.626,0,0,0-.914,1.96,16.258,16.258,0,0,0-.162,2.312V66.372Z" transform="translate(-255.193 -36.91)" fill="#52b375"/>
    <path id="Tracé_5" data-name="Tracé 5" d="M446.791,42.263a8.3,8.3,0,0,1-5.1-1.417q-1.882-1.417-1.88-5.162V26.114H436.69V21.306a6.332,6.332,0,0,0,2.23-.354,2.629,2.629,0,0,0,1.452-1.494,8.856,8.856,0,0,0,.51-3.457h5.91v5.306h5v4.808h-5V36.853h5.16v5.415Z" transform="translate(-354.392 -12.8)" fill="#52b375"/>
    <path id="Tracé_6" data-name="Tracé 6" d="M525.86,66.4V61.033l11.827-11.445H526.612V44.16h19.613v5.266l-11.4,11.5h11.4V66.4Z" transform="translate(-427.508 -36.942)" fill="#52b375"/>
    <path id="Tracé_7" data-name="Tracé 7" d="M632.646,0V.6h-1.14V3.564H630.8V.6H629.66V0ZM636.5,3.564l-.132-2.1c-.012-.276-.012-.616-.026-1h-.04c-.09.314-.2.734-.3,1.062l-.642,1.978h-.734l-.642-2.028c-.066-.274-.17-.694-.25-1H633.7c0,.328-.014.668-.028,1l-.13,2.1h-.682L633.128,0h1.062l.616,1.742c.078.276.144.538.236.9h.012c.092-.326.172-.628.25-.89L635.91,0h1.018l.276,3.564Z" transform="translate(-510.55)" fill="#52b375"/>
  </g>
</svg>
