<svg xmlns="http://www.w3.org/2000/svg" width="100.696" height="16" viewBox="0 0 100.696 16">
  <g id="etoile_note" transform="translate(-1043 -8081.66)">
    <path id="XMLID_16_" d="M16.709,13.392a.761.761,0,0,0-.615-.518l-4.863-.707L9.056,7.76a.761.761,0,0,0-1.365,0L5.517,12.167l-4.863.707a.761.761,0,0,0-.422,1.3L3.75,17.6l-.831,4.844a.761.761,0,0,0,1.1.8l4.35-2.287,4.35,2.287a.771.771,0,0,0,.356.087.762.762,0,0,0,.741-.931L13,17.6l3.519-3.43A.761.761,0,0,0,16.709,13.392Z" transform="translate(1042.998 8074.324)" fill="#ffc569"/>
    <path id="XMLID_16_2" data-name="XMLID_16_" d="M16.709,13.392a.761.761,0,0,0-.615-.518l-4.863-.707L9.056,7.76a.761.761,0,0,0-1.365,0L5.517,12.167l-4.863.707a.761.761,0,0,0-.422,1.3L3.75,17.6l-.831,4.844a.761.761,0,0,0,1.1.8l4.35-2.287,4.35,2.287a.771.771,0,0,0,.356.087.762.762,0,0,0,.741-.931L13,17.6l3.519-3.43A.761.761,0,0,0,16.709,13.392Z" transform="translate(1064.12 8074.324)" fill="#ffc569"/>
    <path id="XMLID_16_3" data-name="XMLID_16_" d="M16.709,13.392a.761.761,0,0,0-.615-.518l-4.863-.707L9.056,7.76a.761.761,0,0,0-1.365,0L5.517,12.167l-4.863.707a.761.761,0,0,0-.422,1.3L3.75,17.6l-.831,4.844a.761.761,0,0,0,1.1.8l4.35-2.287,4.35,2.287a.771.771,0,0,0,.356.087.762.762,0,0,0,.741-.931L13,17.6l3.519-3.43A.761.761,0,0,0,16.709,13.392Z" transform="translate(1085.242 8074.324)" fill="#ffc569"/>
    <path id="XMLID_16_4" data-name="XMLID_16_" d="M16.709,13.392a.761.761,0,0,0-.615-.518l-4.863-.707L9.056,7.76a.761.761,0,0,0-1.365,0L5.517,12.167l-4.863.707a.761.761,0,0,0-.422,1.3L3.75,17.6l-.831,4.844a.761.761,0,0,0,1.1.8l4.35-2.287,4.35,2.287a.771.771,0,0,0,.356.087.762.762,0,0,0,.741-.931L13,17.6l3.519-3.43A.761.761,0,0,0,16.709,13.392Z" transform="translate(1106.363 8074.324)" fill="#ffc569"/>
    <path id="XMLID_16_5" data-name="XMLID_16_" d="M15.665,13.014a.714.714,0,0,0-.576-.486l-4.559-.662L8.491,7.734a.714.714,0,0,0-1.28,0L5.172,11.865l-4.559.662a.714.714,0,0,0-.4,1.217l3.3,3.215L2.737,21.5a.714.714,0,0,0,1.035.752L7.851,20.11l4.078,2.144a.723.723,0,0,0,.334.082.714.714,0,0,0,.695-.873l-.772-4.5,3.3-3.215A.714.714,0,0,0,15.665,13.014Z" transform="translate(1127.485 8074.824)" fill="none" stroke="#000" stroke-width="1"/>
  </g>
</svg>
