<svg xmlns="http://www.w3.org/2000/svg" width="144" height="48" viewBox="0 0 144 48">
  <g id="hein" transform="translate(-647 -2546)">
    <g id="Rectangle_292" data-name="Rectangle 292" transform="translate(647 2546)" fill="#fff" stroke="#000" stroke-width="2">
      <rect width="144" height="48" rx="24" stroke="none"/>
      <rect x="1" y="1" width="142" height="46" rx="23" fill="none"/>
    </g>
    <path id="Tracé_360" data-name="Tracé 360" d="M-51.06,0V-12.2h17.24V0h2.84V-26.8h-2.84v12H-51.06v-12H-53.9V0Zm34.28.4c5.52,0,9.6-2.84,9.6-6.96v-.28h-2.84v.28c0,2.88-2.16,4.6-6.8,4.6-5.24,0-7.52-2.68-7.68-7.12H-7.1a8.084,8.084,0,0,0,.2-1.84c0-5.88-4.12-9.24-9.92-9.24-6.36,0-10.36,4.28-10.36,10.28C-27.18-3.6-23.14.4-16.78.4Zm-.08-18.2c4.64,0,7.28,2.2,7.28,6.36v.6H-24.5C-24.3-15.16-21.98-17.8-16.86-17.8ZM-.3-22.28V-26.8H-3.14v4.52ZM-.3,0V-19.76H-3.14V0ZM7.3,0V-9.56c0-5.08,2.52-8,7.32-8,4.52,0,6.48,2.36,6.48,6.44V0h2.84V-11.52c0-4.68-2.76-8.64-8.32-8.64a8.174,8.174,0,0,0-8.4,6.6h-.2v-6.2H4.46V0ZM44.86-8.64V-9.76c0-1.32.44-1.88,1.96-2.56l2.88-1.24c2.84-1.24,5.52-3.08,5.52-6.72,0-3.76-2.92-6.92-9.92-6.92-7.96,0-11.36,4-11.36,8.76v.76h2.8v-.8c0-4,2.24-6.12,8.44-6.12,5.6,0,7.2,1.88,7.2,4.4,0,2.32-1.48,3.4-4.12,4.6l-2.88,1.32c-2.4,1.04-3.36,2.36-3.36,4.36v1.28ZM45.1,0V-5.4H41.9V0Z" transform="translate(719 2583)"/>
  </g>
</svg>
