<svg xmlns="http://www.w3.org/2000/svg" xmlns:xlink="http://www.w3.org/1999/xlink" width="110.797" height="110.78" viewBox="0 0 110.797 110.78">
  <defs>
    <radialGradient id="radial-gradient" cx="0.529" cy="0.58" r="0.575" gradientTransform="matrix(1, -0.004, 0.004, 1, 0.003, 0.002)" gradientUnits="objectBoundingBox">
      <stop offset="0" stop-color="#f79f40"/>
      <stop offset="0.163" stop-color="#f7a442"/>
      <stop offset="0.371" stop-color="#f8b449"/>
      <stop offset="0.601" stop-color="#f9ce55"/>
      <stop offset="0.771" stop-color="#fbe660"/>
      <stop offset="0.91" stop-color="#fbf36f"/>
      <stop offset="0.932" stop-color="#fbf672"/>
      <stop offset="0.947" stop-color="#fbf676"/>
      <stop offset="0.962" stop-color="#fbf782"/>
      <stop offset="0.978" stop-color="#fbf897"/>
      <stop offset="0.994" stop-color="#fcfab4"/>
      <stop offset="1" stop-color="#fdfbc2"/>
    </radialGradient>
    <clipPath id="clip-path">
      <path id="Tracé_153" data-name="Tracé 153" d="M335.919,94.632c0-.045,0-.1,0-.139.008-.251.065-1.777.349-4.031.025-.2.053-.4.079-.6.039-.284.082-.578.128-.88a55.128,55.128,0,0,1,7.272-20.242l.027-.044q.6-1,1.245-1.972l.005-.007a55.3,55.3,0,0,1,7.061-8.64,48.571,48.571,0,0,1,4.081-3.689q1.338-1.092,2.75-2.1l.138-.107.124-.083c.161-.114.32-.23.483-.342.607-.426,1.261-.863,1.974-1.312l.005,0c.027-.018.052-.032.079-.049q.514-.323,1.077-.655c.168-.1.339-.2.509-.3.145-.084.281-.166.431-.251.115-.065.229-.127.345-.191a55.812,55.812,0,0,1,6.772-3.225c.607-.245,1.074-.422,1.346-.522l.421-.151.414-.15.062-.02.092-.034.683-.23.1-.031.1-.032.466-.15c.186-.059.435-.135.621-.193l.536-.159.3-.087.089-.026.108-.031.172-.048.6-.163.5-.131.476-.12.022-.005.3-.075.576-.136.406-.091q.276-.062.553-.12l.1-.021c.138-.03.278-.058.416-.087l.247-.048.3-.06.05-.009.1-.02.169-.031.45-.082.288-.051h.006c.165-.029.331-.054.5-.081l.429-.07.255-.037.387-.056.371-.052c.205-.028.412-.054.618-.079l.567-.068.187-.023.042,0c.161-.017.34-.035.524-.052.259-.026.518-.048.776-.07l.532-.047c.2-.015.4-.025.594-.038s.416-.028.624-.039c.13-.007.255-.01.383-.016l.346-.02c.089,0,.176,0,.265-.005s.2-.007.294-.009c1.113-.034,2.225-.031,3.335,0,.249.008.487.015.709.024.249.011.5.021.745.036l.44.024c.363.024.718.051,1.07.081l.37.032c.51.047,1,.1,1.472.157.227.026.454.055.682.084l-.049-.007.059.009.139.02c.37.05.72.1,1.047.15.265.04.53.081.794.126.6.1,1.078.189,1.4.252q2.407.468,4.763,1.152c.939.257,1.767.519,2.8.884a55.418,55.418,0,0,1,12.246,6.026l.007.005,0,0q.573.376,1.138.767c.049.033.1.07.148.1q.979.682,1.933,1.41l.155.117.057.041.05.039c.026.021.05.038.076.058l.058.045c.175.136.348.273.521.411q.528.422,1.017.831.276.231.551.466.559.481,1.059.93l.049.041.042.042c.079.071.157.141.235.213,1.732,1.583,2.788,2.739,2.856,2.813.536.569,1.066,1.168,1.592,1.781.373.428.754.878,1.147,1.359l.083.1.058.078c.778.961,1.6,2.05,2.5,3.365l.02.028.02.03.038.055c.409.6.832,1.274,1.256,1.98.37.605.733,1.206,1.055,1.723l1.053,2.03c.349.659.679,1.3.978,1.887a40.091,40.091,0,0,1,1.762,4.2l0,.012,0,.016c.5,1.374.976,2.836,1.387,4.252l.016.05.016.06a41.559,41.559,0,0,1,1.147,4.923,50.314,50.314,0,0,1,.917,8.92,55.025,55.025,0,0,1-2.4,17.283,53.609,53.609,0,0,1-3.191,8.1,35.734,35.734,0,0,1-1.725,3.289c-.742,1.29-1.562,2.569-2.44,3.827l-.3.464a36.208,36.208,0,0,1-3.212,4.147c-.788.862-1.81,2.038-2.628,2.871s-1.913,1.9-2.8,2.663h0c-.974.861-1.38,1.216-2.3,1.916q-1.67,1.344-3.392,2.5l-.014.009c-.372.25-.745.5-1.119.733-.443.281-.882.552-1.272.779-.208.121-.5.29-.834.479l-.152.086c-.347.2-.75.419-1.2.661l-.3.158c-1.334.71-3.018,1.547-4.881,2.313-.406.166-.961.392-1.625.647l-.557.217-.978.35-.683.23-.243.079-.048.016-.368.118c-.186.059-.434.135-.62.193l-.609.181-.053.015a51.846,51.846,0,0,1-6.824,1.523l-.207.034c-.184.028-.4.059-.614.089l-.061.009-.534.075-1.218.146c-.548.06-1.281.12-1.831.17-.508.044-1.127.078-1.713.1h-.026c-.3.013-.586.024-.844.031-.764.022-1.782.009-2.545.013-.782,0-1.824-.075-2.606-.107-1.662-.139-3.875-.384-5.523-.641a42.749,42.749,0,0,1-4.254-.884c-.317-.088-.65-.183-.99-.283-.992-.279-2.017-.584-2.872-.831l-1-.37q-1.208-.413-2.385-.879l-.4-.147c-.928-.347-2.044-.871-3.052-1.363q-.645-.311-1.28-.636a37.907,37.907,0,0,1-3.6-2.025l-.108-.072q-1.426-.887-2.811-1.866c-.2-.136-.4-.274-.59-.4l-1.005-.785q-.4-.309-.8-.628l-1.523-1.191a35.663,35.663,0,0,1-3.168-2.9l-.08-.074-.149-.161c-.8-.813-1.713-1.779-2.772-2.967l-.07-.082,0,0a49.27,49.27,0,0,1-4.664-6.265l-.049-.076c-.432-.684-.871-1.411-1.311-2.183l-.009-.015.006.01q-.281-.492-.561-1.007c-.262-.473-.514-.939-.72-1.361-.066-.135-.135-.28-.2-.422q-.546-1.1-1.076-2.287c-.488-1.079-.954-2.178-1.283-3.138l0-.008c-.6-1.615-1.157-3.333-1.64-5.144-.309-1.1-.577-2.215-.76-3.244q-.339-1.68-.583-3.451c-.042-.271-.075-.53-.106-.789q-.291-2.389-.374-4.943c0-.057-.008-.122-.011-.178v-.117C335.843,97.4,335.853,96.033,335.919,94.632Z" fill="none"/>
    </clipPath>
    <linearGradient id="linear-gradient" x1="10.56" y1="-7.364" x2="10.756" y2="-6.684" gradientUnits="objectBoundingBox">
      <stop offset="0" stop-color="#fff"/>
      <stop offset="0.173" stop-color="#fff" stop-opacity="0.773"/>
      <stop offset="0.398" stop-color="#fff" stop-opacity="0.502"/>
      <stop offset="0.601" stop-color="#fff" stop-opacity="0.286"/>
      <stop offset="0.775" stop-color="#fff" stop-opacity="0.129"/>
      <stop offset="0.913" stop-color="#fff" stop-opacity="0.035"/>
      <stop offset="0.997" stop-color="#fff" stop-opacity="0"/>
    </linearGradient>
  </defs>
  <g id="picto_3d_smiley" transform="translate(-335.858 -41.871)">
    <g id="Groupe_79" data-name="Groupe 79">
      <path id="Tracé_142" data-name="Tracé 142" d="M446.571,94.184c0-.046,0-.1,0-.14-.009-.25-.079-1.776-.381-4.027-.026-.2-.056-.4-.084-.6-.041-.283-.086-.577-.135-.878a55.136,55.136,0,0,0-7.436-20.184l-.027-.043q-.609-.995-1.261-1.962l-.005-.006a55.206,55.206,0,0,0-7.131-8.583A48.44,48.44,0,0,0,426,54.106q-1.346-1.08-2.767-2.076l-.138-.1-.125-.083c-.162-.112-.322-.227-.485-.338-.611-.421-1.268-.852-1.986-1.3l0,0-.08-.048q-.518-.318-1.082-.647c-.169-.1-.341-.194-.512-.291-.145-.083-.281-.164-.432-.247-.116-.065-.231-.126-.347-.189a55.936,55.936,0,0,0-6.8-3.17c-.609-.24-1.077-.413-1.35-.511l-.422-.147-.416-.147-.061-.02-.093-.032c-.205-.069-.479-.158-.685-.225l-.1-.031-.1-.03-.467-.147c-.186-.057-.435-.131-.622-.187l-.538-.156-.3-.085-.09-.024-.108-.03-.172-.047-.6-.158-.5-.127c-.159-.04-.318-.078-.477-.116l-.022-.005-.3-.072-.577-.132-.407-.088c-.184-.039-.368-.078-.553-.115l-.1-.021-.418-.083-.247-.046-.3-.057-.049-.009-.1-.02-.17-.029q-.225-.041-.45-.078l-.289-.049h-.006c-.165-.027-.331-.051-.5-.077l-.429-.066c-.077-.012-.171-.024-.256-.036l-.386-.052-.372-.05c-.206-.026-.413-.049-.619-.073l-.567-.064c-.063-.006-.125-.015-.188-.021l-.042,0c-.161-.016-.34-.032-.524-.047-.259-.024-.518-.044-.777-.064l-.532-.043c-.2-.014-.4-.022-.594-.033s-.416-.025-.624-.034c-.131-.006-.255-.008-.384-.013l-.346-.017-.264,0-.294-.007q-1.671-.036-3.336.03c-.249.009-.487.019-.709.03-.248.013-.5.025-.744.041l-.44.028c-.363.026-.718.057-1.069.09-.123.011-.247.022-.37.035-.509.051-1,.108-1.47.168-.227.029-.455.059-.681.09l.048-.008-.059.01-.139.021c-.369.053-.719.106-1.046.158-.264.043-.529.087-.793.133-.6.1-1.076.2-1.4.263q-2.4.488-4.753,1.191c-.937.265-1.763.533-2.791.907a55.351,55.351,0,0,0-12.2,6.125l-.007.005-.005,0q-.57.381-1.131.776l-.147.1q-.973.69-1.922,1.426c-.051.04-.1.077-.154.118l-.057.041c-.015.012-.033.028-.049.04s-.05.038-.076.058l-.057.046c-.174.137-.346.276-.518.415-.35.284-.685.563-1.01.839q-.275.234-.548.471c-.37.323-.722.638-1.05.938l-.049.042-.042.042-.233.215c-1.72,1.6-2.766,2.762-2.833,2.836-.532.573-1.057,1.177-1.578,1.794-.369.431-.747.884-1.136,1.368l-.082.1-.057.078c-.77.967-1.585,2.063-2.473,3.386l-.02.028-.02.03-.038.055c-.4.6-.821,1.281-1.239,1.99-.365.608-.724,1.213-1.041,1.731l-1.037,2.04c-.344.661-.668,1.3-.962,1.894a39.994,39.994,0,0,0-1.728,4.217l0,.011,0,.016c-.488,1.378-.953,2.844-1.352,4.264l-.016.05c-.005.018-.01.041-.015.059a41.471,41.471,0,0,0-1.108,4.933,50.3,50.3,0,0,0-.844,8.927,52.939,52.939,0,0,0,.59,8.776,55.435,55.435,0,0,0,5.21,16.557,36.181,36.181,0,0,0,1.752,3.275c.754,1.284,1.583,2.556,2.472,3.807l.307.462a36.437,36.437,0,0,0,3.246,4.121c.794.855,1.826,2.023,2.651,2.848s1.929,1.887,2.826,2.641h0c.981.853,1.39,1.205,2.311,1.9q1.68,1.331,3.412,2.476l.014.009c.375.248.749.492,1.126.724.444.278.886.545,1.277.769.21.119.5.286.838.472l.153.085c.349.194.754.413,1.206.652l.3.155c1.34.7,3.031,1.523,4.9,2.273.407.164.963.384,1.63.634.187.071.38.146.559.212l.98.343.685.224.244.077.048.015.369.116c.186.058.435.131.621.187l.611.177.053.014a51.724,51.724,0,0,0,6.836,1.468l.207.032c.184.027.4.056.615.084l.061.008.535.071,1.218.137c.549.055,1.283.109,1.833.155.508.04,1.127.068,1.714.088h.025c.3.01.587.019.845.024.764.016,1.782-.005,2.545-.007.782,0,1.823-.09,2.6-.129,1.661-.152,3.871-.415,5.517-.686a42.63,42.63,0,0,0,4.247-.918c.316-.09.648-.188.988-.291.989-.287,2.012-.6,2.865-.854l1-.378q1.2-.423,2.378-.9l.4-.15c.925-.354,2.036-.887,3.041-1.388.427-.21.853-.425,1.274-.646a38.039,38.039,0,0,0,3.584-2.054l.107-.073q1.42-.9,2.8-1.888c.2-.138.4-.279.587-.4l1-.794q.4-.312.8-.634l1.513-1.2a35.609,35.609,0,0,0,3.145-2.923l.079-.075.149-.162c.792-.819,1.7-1.793,2.747-2.989.022-.026.046-.057.069-.083l0,0a49.2,49.2,0,0,0,4.613-6.3l.049-.077c.426-.687.859-1.417,1.293-2.194l.009-.014-.006.01q.276-.495.553-1.012c.258-.475.506-.943.708-1.366l.2-.425q.539-1.1,1.057-2.3c.48-1.082.937-2.186,1.258-3.148l0-.008c.591-1.62,1.13-3.343,1.6-5.158.3-1.106.559-2.219.734-3.25q.326-1.682.555-3.455c.039-.272.071-.531.1-.789q.271-2.393.333-4.946c0-.057.007-.123.01-.179l0-.117C446.669,96.951,446.648,95.584,446.571,94.184Z" fill="url(#radial-gradient)"/>
      <g id="Groupe_78" data-name="Groupe 78">
        <g id="Groupe_77" data-name="Groupe 77" clip-path="url(#clip-path)">
          <g id="Groupe_75" data-name="Groupe 75">
            <path id="Tracé_143" data-name="Tracé 143" d="M358.867,69.765c-7.74,3.048-8.457,14.981-2.655,17.927,5.92,3.006,12.766-5.821,10.318-13.3-1.222-3.736-4.445-5.68-7.663-4.624" fill="#412121"/>
            <path id="Tracé_144" data-name="Tracé 144" d="M388.422,61.062c-8.567,2.738-8.146,13.389-1.229,16.628,7.309,3.422,14.834-3.122,12.2-10.61a9.384,9.384,0,0,0-10.969-6.018" fill="#412121"/>
            <path id="Tracé_145" data-name="Tracé 145" d="M388.072,118.3l-.084.027.084-.027m-.75.221.089-.024-.089.024m1.056-.321c-.036.013-.072.025-.109.036.037-.011.073-.023.109-.036m-1.372.4.119-.03-.119.03m1.656-.5-.117.041.117-.041m-1.951.574.131-.032-.131.032m2.217-.67-.108.04.108-.04m-2.5.735.131-.029-.131.029m2.771-.837-.11.042.11-.042m-3.059.9.138-.028-.138.028m3.317-1-.1.041.1-.041m-3.6,1.056.138-.026-.138.026m3.856-1.165-.1.044.1-.044m-4.139,1.216.146-.026-.146.026m4.382-1.322-.086.038.086-.038m-4.652,1.366.14-.022-.14.022m4.9-1.48-.079.036.079-.036m-5.178,1.521.143-.021-.143.021m5.417-1.635-.062.03.062-.03m-5.686,1.67.144-.019-.144.019m5.926-1.79-.053.027.053-.027m-6.2,1.82.153-.017-.153.017m6.426-1.939h0m-6.689,1.964.155-.015-.155.015m-.268.021.162-.013-.162.013m-.69.031q.316-.008.632-.028-.315.021-.632.028m-.247,0,.169,0-.169,0m-.248,0,.163,0-.163,0m-.246,0,.151,0-.151,0m-.246-.009.142.007-.142-.007m-.252-.013.138.008-.138-.008m-.251-.019c.047,0,.094.008.141.011l-.141-.011m-.247-.022.136.013-.136-.013m-.244-.026.131.015-.131-.015m-.243-.03.12.016-.12-.016m-.246-.035.118.017-.118-.017m-.242-.039.111.018-.111-.018m-.241-.043.1.018-.1-.018m-.24-.047.066.013-.066-.013m-.526-.119.044.011-.044-.011m-.245-.063.049.013-.049-.013m-.235-.064.043.012-.043-.012m-.243-.071.049.015-.049-.015m-.237-.074.049.016-.006,0-.006,0-.006,0-.006,0-.006,0-.006,0-.007,0-.006,0m-.232-.076.044.015-.044-.015m-.228-.08.032.012-.032-.012m-.228-.084.02.008-.02-.008m-.226-.087h0m14.382-29.989a3.494,3.494,0,0,0-.845.361c.1-.051.222-.115.319-.161,2.347,17.94-13.282,20.265-19.962,14.78a18.733,18.733,0,0,1-5.08-7.406c.1-.012.237-.023.339-.028-6.214.148.014,13.866,5.265,18.81.245.231.586.523.837.748,6.727-4.462,15.554-7.061,24.855-7.319,1.14-5.267.352-21.33-5.728-19.785" fill="#412121"/>
            <path id="Tracé_146" data-name="Tracé 146" d="M384.422,110a40.942,40.942,0,0,0-11.493,5.243,15.066,15.066,0,0,0,14.771,3.167,13.783,13.783,0,0,0,10.085-10.486A50.98,50.98,0,0,0,384.422,110" fill="#fa4542"/>
            <path id="Tracé_147" data-name="Tracé 147" d="M391.53,88.342a4.5,4.5,0,0,0-1.259.881c-1.7,1.379-6.131,4.731-10.662,6.067a28.733,28.733,0,0,1-12.338.433,2.544,2.544,0,0,0-.727-.015c5.545,14.7,20.344,11.174,24.045,2.834,1.758-3.96,1.206-8.174.941-10.2" fill="#fff"/>
            <path id="Tracé_148" data-name="Tracé 148" d="M347.524,94.6c-7.5,3.439-4.517,15.1,1.116,17.16,5.867,2.141,11.39-5.6,8.69-12.186-1.711-4.173-6.11-6.4-9.806-4.974" fill="#fa4542"/>
            <path id="Tracé_149" data-name="Tracé 149" d="M411.82,75.658c-9.885,2.749-11.4,12.444-4.655,16.254,8.111,4.584,19.27-1.775,17.3-9.861-1.206-4.961-6.763-7.769-12.65-6.393" fill="#fa4542"/>
          </g>
          <path id="Tracé_150" data-name="Tracé 150" d="M356.142,131.934a46.666,46.666,0,0,0,1.028,6.334c2.107,8.953,7.836,17.1,18.995,20.622,22.668,7.153,50.678,1.322,64.454-14.089,8.663-9.693,12.638-24.8,10.805-37.572-2.147-14.954-15.434-23.417-29.4-26.9-14.242-3.55-31.745-.582-44.457,6.747C360.492,96.925,354.628,115.711,356.142,131.934Z" fill="#a371ac" opacity="0.8" style="mix-blend-mode: multiply;isolation: isolate"/>
          <g id="Groupe_76" data-name="Groupe 76" style="mix-blend-mode: screen;isolation: isolate">
            <path id="Tracé_151" data-name="Tracé 151" d="M350.57,77c1.493.134,3.044.353,4.644.6,8.321,1.272,15.424-3.979,20.328-10.155,2.957-3.726,3.3-4.512,2.424-9.143-.6-3.134-3.481-5.5-1.129-8.77,1.952-2.72,5.645-3.392,8.962-3.848L412.559,42c-18.514-11.046-43.76-9.436-60.722,3.871s-24.533,37.446-18.21,58.057c-.424-6.137-.813-12.518,1.465-18.232C338.356,77.509,343.866,76.4,350.57,77Z" fill="url(#linear-gradient)"/>
            <path id="Tracé_152" data-name="Tracé 152" d="M404.785,67.145c3.536,6.826,12.488,12.862,17.453,14.546,3.392,1.15,7.425,1.645,10.318-.468,2.848-2.08,3.638-6.14,2.826-9.571-1.917-8.1-22.012-26.3-30.1-15.71C402.544,59.532,402.873,63.454,404.785,67.145Z" fill="#606060" opacity="0.7" style="mix-blend-mode: screen;isolation: isolate"/>
          </g>
        </g>
      </g>
    </g>
  </g>
</svg>
