<svg xmlns="http://www.w3.org/2000/svg" width="139.666" height="81.102" viewBox="0 0 139.666 81.102">
  <g id="fun" transform="translate(0.039 -0.015)">
    <g id="Calque_2" data-name="Calque 2">
      <path id="Tracé_334" data-name="Tracé 334" d="M41.13,30.91a54.11,54.11,0,0,0,1.93,17A48.88,48.88,0,0,0,50,63.14c2,2.86,4.61,5.46,8.2,6.06a12.63,12.63,0,0,0,10.7-3.29c4.53-4.06,5.61-11,7-16.61,1.67-6.76,3-13.76,2.75-20.76l-11.79,1.6c1.5,7.93,2.91,15.89,4.5,23.8,1.53,7.65,4.06,15.43,9.79,21A21.92,21.92,0,0,0,92.27,81c3.08.55,6.62-.84,7.38-4.19.67-2.93-.88-6.79-4.19-7.38-.48-.09-1-.19-1.44-.32a5.43,5.43,0,0,0-1.39-.47c.87.38,1,.44.43.17l-.65-.33c-.32-.18-.64-.36-1-.56s-.85-.75-1.21-.83c.72.56.84.64.34.24L90,66.85A21.521,21.521,0,0,1,88.23,65l-.47-.58c.55.72.64.82.26.31s-.56-.82-.83-1.25A26,26,0,0,1,85.84,61c-.13-.27-.25-.55-.37-.82.3.74.33.81.08.19s-.42-1.12-.61-1.69q-.54-1.6-1-3.24c-1.18-4.53-1.92-9.17-2.78-13.76L78.43,27c-.55-2.93-3.85-4.67-6.58-4.3a6,6,0,0,0-5.2,5.89,52.539,52.539,0,0,1-.33,7.63,7.464,7.464,0,0,1-.11.95c0-.2.19-1.3,0-.18-.11.63-.2,1.27-.31,1.89-.23,1.27-.48,2.52-.76,3.77-.55,2.51-1.19,5-1.84,7.48-.29,1.09-.57,2.2-.88,3.29-.16.55-.32,1.09-.51,1.63-.09.27-.19.53-.29.8-.25.73.69-1.24,0-.08-.13.24-.88,1.21-.86,1.45,0-.15.94-1,.19-.29-.13.13-.29.27-.41.41-.49.58,1-.6.31-.21a5.521,5.521,0,0,0-.66.4c-.62.45,1.12-.32.39-.14a4.18,4.18,0,0,0-.91.24c.16-.09,1.47-.09.48-.14.11,0,1.51.25.48,0-.16,0-.85-.26,0,0s.13,0-.11-.13c-.66-.36.83.81.34.23-.17-.19-.37-.35-.54-.54a2.6,2.6,0,0,0-.38-.43c.5.66.61.8.35.44q-.16-.22-.33-.48a42.31,42.31,0,0,1-3.3-6c-.12-.26-.23-.53-.35-.79s-.38-.82,0-.08,0-.09-.11-.29l-.3-.81c-.43-1.15-.82-2.31-1.16-3.49s-.66-2.52-.92-3.79c-.12-.57-.22-1.13-.32-1.7a4,4,0,0,1-.13-.86c-.15,1.23.08.63,0,.09a49.69,49.69,0,0,1-.25-8,6,6,0,0,0-6-6,6.13,6.13,0,0,0-6,6Z" fill="#fcc46b"/>
      <path id="Tracé_335" data-name="Tracé 335" d="M103.21,62.57q-1.23-20.1-3.8-40.09L87.62,24.07c.22,1.47.44,2.93.65,4.39l.27,2s.22,1.56.09.67,0,.28.06.42c.38,2.94.73,5.87,1.06,8.82q1,8.7,1.56,17.44a6,6,0,0,0,5.2,5.89c2.71.36,6.06-1.35,6.58-4.3a97.352,97.352,0,0,1,4.68-17.17c.21-.58.44-1.17.67-1.75.14-.36.29-.72.44-1.08s.46-1.35,0-.08a24.61,24.61,0,0,1,1.75-3.71,37,37,0,0,1,2-3.28c.48-.74-1,1.06,0,0l.56-.64.6-.61c.19-.19.39-.37.6-.55l-.58.44c0-.16.71-.43.85-.52.68-.45-1.38.42-.14.12-.09,0-1.4.13-.49.13-1.49,0-1.15-.21-.68-.05-1.53-.52-.91-.43-.46-.17.79.46-.11.33-.34-.29a3.19,3.19,0,0,0,.45.45c.81.75-.71-1.15-.12-.17.29.49.6,1,.86,1.48.11.21.2.41.3.62.43.89-.18-.4-.2-.49a36.8,36.8,0,0,0,1.61,4.28q3.17,8.59,6.09,17.27,3.32,9.83,6.32,19.77c.91,3,4.24,5.2,7.38,4.19a6.09,6.09,0,0,0,4.19-7.38Q133.57,50.8,126.51,31.8c-1.21-3.27-2.36-6.43-4.6-9.14A10.57,10.57,0,0,0,111.36,19c-3.87,1-6.66,4-8.92,7.07a43.619,43.619,0,0,0-4.68,9,99.439,99.439,0,0,0-6.24,21.09l11.79,1.6c-.86-12.35-2.26-24.65-4.12-36.89a5.92,5.92,0,0,0-2.75-3.58,6.24,6.24,0,0,0-3.83-.72c-2.64.36-5.59,2.94-5.2,5.9q2.57,20,3.8,40.09c.19,3.13,2.62,6.15,6,6,3.09-.13,6.21-2.64,6-6Z" fill="#fcc46b"/>
      <path id="Tracé_336" data-name="Tracé 336" d="M22.39,63.08a58.859,58.859,0,0,1-1.84-7.63,16.56,16.56,0,0,1-.29-1.83c.07,1.55,0-.28-.07-.7-.15-1.38-.27-2.77-.35-4.16A132.057,132.057,0,0,1,20,33c.08-1.22.17-2.43.29-3.65.06-.6.09-1.23.21-1.82-.28,1.38-.08.55,0,.24s.15-.9.23-1.35a35.57,35.57,0,0,1,.81-3.54q.26-.88.54-1.74c.1-.28.22-.57.32-.85.5-1.44-.54,1.08,0-.1.44-.9.89-1.79,1.42-2.65.27-.42.56-.83.84-1.25.5-.71,0,.33-.25.32.11,0,.53-.63.6-.71.7-.79,1.59-1.41,2.29-2.19-.1.1-1.16.8-.33.27.21-.13.4-.28.61-.41a13.73,13.73,0,0,1,1.45-.81c.21-.11,1-.49.12-.08s.1,0,.32-.09A5.78,5.78,0,0,1,31.65,12c-.73-.19-.87.08-.23,0,.46,0,.91-.06,1.37-.07a20.461,20.461,0,0,1,2.07.08c.21,0,1.22.08.36,0s.39.06.59.09c.77.14,1.54.3,2.3.47,1.53.36,3,.78,4.54,1.21A6.07,6.07,0,0,0,50,9.67a6.11,6.11,0,0,0-4.19-7.38C39.67.53,33-1,26.67.87A24.08,24.08,0,0,0,13.49,11.46C10.22,16.7,9,22.82,8.37,28.87A128.626,128.626,0,0,0,7.72,46a75,75,0,0,0,3.1,20.29c.93,3,4.22,5.21,7.38,4.19,3-1,5.19-4.17,4.19-7.38Z" fill="#fcc46b"/>
      <path id="Tracé_337" data-name="Tracé 337" d="M2.91,34c5.81,3.21,12.28,3,18.62,1.81a156.54,156.54,0,0,0,17.3-4.4c3-.92,5.2-4.23,4.19-7.38a6,6,0,0,0-7.38-4.19C30.35,21.42,25,22.85,19.58,24c-.55.12-1.1.22-1.66.32l-.84.14c-.91.15-.49-.07.12,0-1.12-.11-2.42.23-3.57.23a13.249,13.249,0,0,1-1.66-.07c-1-.09-.26-.21.17,0a3.44,3.44,0,0,0-.8-.16c-.53-.11-1-.28-1.56-.43-1.26-.37.76.42.1.06-.3-.16-.61-.3-.92-.47-2.74-1.52-6.67-.76-8.2,2.15A6.09,6.09,0,0,0,2.91,34Z" fill="#fcc46b"/>
    </g>
  </g>
</svg>
