<svg id="fun_mobile" xmlns="http://www.w3.org/2000/svg" width="98.259" height="57.057" viewBox="0 0 98.259 57.057">
  <path id="Tracé_334" data-name="Tracé 334" d="M41.113,28.461a38.068,38.068,0,0,0,1.358,11.96,34.388,34.388,0,0,0,4.882,10.715c1.407,2.012,3.243,3.841,5.769,4.263a8.886,8.886,0,0,0,7.528-2.315c3.187-2.856,3.947-7.739,4.925-11.686A53.406,53.406,0,0,0,67.51,26.794L59.215,27.92C60.27,33.5,61.262,39.1,62.381,44.664c1.076,5.382,2.856,10.855,6.888,14.774A15.421,15.421,0,0,0,77.092,63.7c2.167.387,4.657-.591,5.192-2.948.471-2.061-.619-4.777-2.948-5.192-.338-.063-.7-.134-1.013-.225a3.82,3.82,0,0,0-.978-.331c.612.267.7.31.3.12l-.457-.232c-.225-.127-.45-.253-.7-.394s-.6-.528-.851-.584c.507.394.591.45.239.169l-.38-.338a15.142,15.142,0,0,1-1.245-1.3l-.331-.408c.387.507.45.577.183.218s-.394-.577-.584-.879a18.291,18.291,0,0,1-.95-1.745c-.091-.19-.176-.387-.26-.577.211.521.232.57.056.134s-.3-.788-.429-1.189q-.38-1.126-.7-2.279c-.83-3.187-1.351-6.451-1.956-9.681L67.355,25.711a4.225,4.225,0,0,0-8.288,1.119,36.962,36.962,0,0,1-.232,5.368,5.251,5.251,0,0,1-.077.668c0-.141.134-.915,0-.127-.077.443-.141.893-.218,1.33-.162.893-.338,1.773-.535,2.652-.387,1.766-.837,3.518-1.294,5.262-.2.767-.4,1.548-.619,2.315-.113.387-.225.767-.359,1.147-.063.19-.134.373-.2.563-.176.514.485-.872,0-.056-.091.169-.619.851-.605,1.02,0-.106.661-.7.134-.2-.091.091-.2.19-.288.288-.345.408.7-.422.218-.148a3.883,3.883,0,0,0-.464.281c-.436.317.788-.225.274-.1a2.941,2.941,0,0,0-.64.169c.113-.063,1.034-.063.338-.1.077,0,1.062.176.338,0-.113,0-.6-.183,0,0s.091,0-.077-.091c-.464-.253.584.57.239.162-.12-.134-.26-.246-.38-.38a1.829,1.829,0,0,0-.267-.3c.352.464.429.563.246.31q-.113-.155-.232-.338A29.767,29.767,0,0,1,52.039,42.3c-.084-.183-.162-.373-.246-.556s-.267-.577,0-.056,0-.063-.077-.2l-.211-.57c-.3-.809-.577-1.625-.816-2.455s-.464-1.773-.647-2.666c-.084-.4-.155-.795-.225-1.2a2.814,2.814,0,0,1-.091-.605c-.106.865.056.443,0,.063a34.958,34.958,0,0,1-.176-5.628A4.221,4.221,0,0,0,45.327,24.2a4.313,4.313,0,0,0-4.221,4.221Z" transform="translate(-12.15 -6.726)" fill="#fcc46b"/>
  <path id="Tracé_335" data-name="Tracé 335" d="M98.515,48.916q-.865-14.141-2.673-28.2L87.547,21.83c.155,1.034.31,2.061.457,3.088l.19,1.407s.155,1.1.063.471,0,.2.042.3c.267,2.068.514,4.13.746,6.205q.7,6.121,1.1,12.27A4.221,4.221,0,0,0,93.8,49.711c1.907.253,4.263-.95,4.629-3.025a68.49,68.49,0,0,1,3.293-12.08c.148-.408.31-.823.471-1.231.1-.253.2-.507.31-.76s.324-.95,0-.056a17.315,17.315,0,0,1,1.231-2.61,26.03,26.03,0,0,1,1.407-2.308c.338-.521-.7.746,0,0l.394-.45.422-.429c.134-.134.274-.26.422-.387l-.408.31c0-.113.5-.3.6-.366.478-.317-.971.3-.1.084-.063,0-.985.091-.345.091-1.048,0-.809-.148-.478-.035-1.076-.366-.64-.3-.324-.12.556.324-.077.232-.239-.2a2.245,2.245,0,0,0,.317.317c.57.528-.5-.809-.084-.12.2.345.422.7.605,1.041.077.148.141.288.211.436.3.626-.127-.281-.141-.345a25.889,25.889,0,0,0,1.133,3.011q2.23,6.043,4.284,12.15,2.336,6.916,4.446,13.909A4.222,4.222,0,0,0,124,54.291q-4.123-13.655-9.09-27.022a21.108,21.108,0,0,0-3.236-6.43,7.436,7.436,0,0,0-7.422-2.575c-2.723.7-4.685,2.814-6.275,4.974a30.687,30.687,0,0,0-3.293,6.332,69.958,69.958,0,0,0-4.39,14.837l8.295,1.126c-.605-8.689-1.59-17.342-2.9-25.953a4.165,4.165,0,0,0-1.935-2.519,4.39,4.39,0,0,0-2.695-.507c-1.857.253-3.933,2.068-3.658,4.151q1.808,14.071,2.673,28.2a4.294,4.294,0,0,0,4.221,4.221c2.174-.091,4.369-1.857,4.221-4.221Z" transform="translate(-25.877 -4.907)" fill="#fcc46b"/>
  <path id="Tracé_336" data-name="Tracé 336" d="M18.025,44.383a41.409,41.409,0,0,1-1.294-5.368,11.65,11.65,0,0,1-.2-1.287c.049,1.09,0-.2-.049-.492-.106-.971-.19-1.949-.246-2.927a92.906,92.906,0,0,1,.113-11.088c.056-.858.12-1.71.2-2.568.042-.422.063-.865.148-1.28-.2.971-.056.387,0,.169s.106-.633.162-.95a25.024,25.024,0,0,1,.57-2.49q.183-.619.38-1.224c.07-.2.155-.4.225-.6.352-1.013-.38.76,0-.07.31-.633.626-1.259,1-1.864.19-.3.394-.584.591-.879.352-.5,0,.232-.176.225.077,0,.373-.443.422-.5.492-.556,1.119-.992,1.611-1.541-.07.07-.816.563-.232.19.148-.091.281-.2.429-.288a9.66,9.66,0,0,1,1.02-.57c.148-.077.7-.345.084-.056s.07,0,.225-.063a4.066,4.066,0,0,1,1.534-.415c-.514-.134-.612.056-.162,0,.324,0,.64-.042.964-.049a14.394,14.394,0,0,1,1.456.056c.148,0,.858.056.253,0s.274.042.415.063c.542.1,1.083.211,1.618.331,1.076.253,2.111.549,3.194.851a4.27,4.27,0,0,0,5.171-2.891A4.3,4.3,0,0,0,34.5,1.616C30.182.377,25.489-.7,21.036.617a16.941,16.941,0,0,0-9.272,7.45c-2.3,3.686-3.159,7.992-3.6,12.248A90.492,90.492,0,0,0,7.7,32.367,52.765,52.765,0,0,0,9.885,46.641a4.222,4.222,0,0,0,8.14-2.244Z" transform="translate(-2.246 -0.015)" fill="#fcc46b"/>
  <path id="Tracé_337" data-name="Tracé 337" d="M2.036,29.727c4.087,2.258,8.639,2.111,13.1,1.273a110.13,110.13,0,0,0,12.171-3.1,4.286,4.286,0,0,0,2.948-5.192,4.222,4.222,0,0,0-5.192-2.948c-3.722,1.112-7.486,2.118-11.3,2.927-.387.084-.774.155-1.168.225l-.591.1c-.64.106-.345-.049.084,0-.788-.077-1.7.162-2.512.162a9.321,9.321,0,0,1-1.168-.049c-.7-.063-.183-.148.12,0a2.42,2.42,0,0,0-.563-.113c-.373-.077-.7-.2-1.1-.3-.886-.26.535.3.07.042-.211-.113-.429-.211-.647-.331A4.276,4.276,0,0,0,.523,23.937a4.284,4.284,0,0,0,1.513,5.79Z" transform="translate(0.039 -5.818)" fill="#fcc46b"/>
</svg>
