<svg xmlns="http://www.w3.org/2000/svg" width="314.559" height="70.884" viewBox="0 0 314.559 70.884">
  <g id="rature" transform="translate(0 0.019)">
    <g id="Calque_2" data-name="Calque 2" transform="translate(0 -0.019)">
      <path id="Tracé_338" data-name="Tracé 338" d="M9.014,69.14A184.965,184.965,0,0,1,22.393,53.68q3.579-3.7,7.343-7.16l1.546-1.41,1.175-1,.106-.09c1.317-1.13,2.651-2.26,3.985-3.36A175.052,175.052,0,0,1,69.581,19.49c.884-.44-1.14.53.336-.16l1.379-.64,2.306-1c1.7-.75,3.411-1.46,5.125-2.15,3.438-1.37,6.919-2.6,10.427-3.72L83.163,3q-.981,1.71-2.094,3.36c.7-1.05-.23.3-.3.4-.389.54-.778,1.06-1.175,1.57-1.405,1.81-2.9,3.52-4.418,5.17S71.72,17,69.943,18.6l-2.527,2.29c-.159.13-1.679,1.47-.76.67l-1.264,1.12C58.023,29.07,50.37,35.31,44.44,43.47a6.857,6.857,0,0,0,0,8.48c3.915,5.59,10.869,5.67,16.543,4.82a157.887,157.887,0,0,0,19.361-4.2c12.142-3.44,23.957-8.17,35.692-13s23.532-10,35.551-14.11q4.516-1.56,9.093-2.93c.778-.24,8.837-2.16,8.837-2.37,0,.1-1.4.1-.336.08h.742c.239,0,1.37-.13,1.476.08s-1.166-.3-.336,0a6.765,6.765,0,0,0,.672.2c1.087.25-.813-.46-.2-.11s.124.07-.2-.27c.61.64-.221-.39-.274-.47.46.76-.168-.42-.194-.53l-.106-.9v.06c0-.16.318-1.33.062-.64s.521-.48,0,0a9.287,9.287,0,0,0-.8.91c-.566.6-1.149,1.19-1.767,1.77q-1.829,1.84-3.747,3.6l-1.007.91c-.292.25-.274.24.053,0l-.406.35c-.689.59-1.387,1.17-2.085,1.74-2.722,2.06-5.523,4.12-8.457,6.06a94.665,94.665,0,0,1-8.952,5.2c-.786.41-1.573.8-2.368,1.18.212-.1.822-.38-.159.07l-1.449.65c-1.6.71-3.225,1.36-4.86,2l2.819,11.57a213.9,213.9,0,0,1,32.829-10.43c5.567-1.31,11.17-2.43,16.79-3.4,1.273-.22,2.545-.44,3.818-.64l2.192-.35,1.087-.17c-.574.09,0,0,.239,0,2.925-.44,5.85-.84,8.784-1.22,22.649-2.93,45.421-4.33,68.044-7.09a376.525,376.525,0,0,0,39.244-6.6c2.722-.62,4.542-4.44,3.7-7.38-.838-3.142-3.708-4.986-6.522-4.19a331.194,331.194,0,0,1-33.1,5.76c-11.391,1.41-22.879,2.49-34.313,3.56-22.905,2.14-45.872,4.25-68.468,9.15a219.277,219.277,0,0,0-37.115,11.41,6.273,6.273,0,0,0-3.7,7.38c.884,3,3.7,5.26,6.522,4.19a106.927,106.927,0,0,0,34.375-21.36,51.3,51.3,0,0,0,6.716-6.85c2.6-3.47,3.535-8.18,1.3-12.2-3.818-6.82-11.965-5.15-17.727-3.59C136.82,16.55,112.952,29.2,87.9,37.74a178.865,178.865,0,0,1-21.4,6c-1.767.36-3.535.7-5.3,1l-1.1.16c.884-.15-.521.07-.619.08-.716.1-1.44.18-2.165.21a20.027,20.027,0,0,1-2.192,0s-1.44-.19-.583,0-.389-.11-.539-.15c-.336-.09-.654-.23-.99-.33s-.256-.1.327.16a5.871,5.871,0,0,1-.521-.33c-.168-.12-.742-.74-.283-.18s-.513-.73-.6-.86V52a80.21,80.21,0,0,1,9.827-11c.831-.79,1.67-1.56,2.51-2.32l1.458-1.3c.159-.14,1.679-1.48.76-.68,1.767-1.55,3.535-3.08,5.3-4.63,7.75-6.71,15.2-13.71,20.537-23.07C94.872,4.55,90.657-1.19,86.336.19a173.183,173.183,0,0,0-69.4,42.94A183.034,183.034,0,0,0,1.511,60.65c-1.82,2.36-2.2,6.19,0,8.49C3.535,71.21,7.069,71.66,9.014,69.14Z" transform="translate(0 0.019)" fill="#fcc46b"/>
    </g>
  </g>
</svg>
