<svg xmlns="http://www.w3.org/2000/svg" width="195.247" height="43.998" viewBox="0 0 195.247 43.998">
  <path id="rayure_mobile" d="M5.595,42.908a114.808,114.808,0,0,1,8.3-9.6q2.221-2.3,4.558-4.444l.96-.875.73-.621.066-.056c.817-.7,1.646-1.4,2.474-2.086a108.655,108.655,0,0,1,20.5-13.14c.548-.273-.708.329.208-.1l.856-.4,1.432-.621c1.053-.466,2.117-.906,3.181-1.335,2.134-.85,4.295-1.614,6.472-2.309L51.62,1.855q-.609,1.061-1.3,2.086c.433-.652-.143.186-.186.248-.241.335-.483.658-.73.975-.872,1.123-1.8,2.185-2.743,3.209s-2.145,2.172-3.247,3.166l-1.569,1.421c-.1.081-1.042.912-.472.416l-.784.7c-4.575,3.966-9.325,7.839-13,12.9a4.256,4.256,0,0,0,0,5.264c2.43,3.47,6.747,3.519,10.268,2.992A98,98,0,0,0,49.87,32.623a206.745,206.745,0,0,0,22.154-8.069c7.284-3,14.607-6.207,22.066-8.758q2.8-.968,5.644-1.819c.483-.149,5.485-1.341,5.485-1.471,0,.062-.867.062-.208.05h.461c.148,0,.85-.081.916.05s-.724-.186-.208,0a4.2,4.2,0,0,0,.417.124c.675.155-.5-.286-.126-.068s.077.043-.126-.168c.378.4-.137-.242-.17-.292.285.472-.1-.261-.121-.329l-.066-.559v.037c0-.1.2-.826.038-.4s.324-.3,0,0a5.764,5.764,0,0,0-.5.565c-.351.372-.713.739-1.1,1.1q-1.135,1.142-2.326,2.235l-.625.565c-.181.155-.17.149.033,0l-.252.217c-.428.366-.861.726-1.294,1.08-1.689,1.279-3.428,2.557-5.249,3.761A58.759,58.759,0,0,1,89.159,23.7c-.488.254-.976.5-1.47.732.132-.062.51-.236-.1.043l-.9.4c-.993.441-2,.844-3.017,1.241l1.75,7.182A132.769,132.769,0,0,1,105.8,26.832c3.456-.813,6.933-1.508,10.422-2.11.79-.137,1.58-.273,2.37-.4l1.36-.217.675-.106c-.357.056,0,0,.148,0,1.816-.273,3.631-.521,5.452-.757,14.058-1.819,28.193-2.688,42.235-4.4a233.71,233.71,0,0,0,24.359-4.1c1.689-.385,2.819-2.756,2.3-4.581a3.343,3.343,0,0,0-4.048-2.6,205.574,205.574,0,0,1-20.547,3.575c-7.07.875-14.2,1.546-21.3,2.21-14.217,1.328-28.473,2.638-42.5,5.679A136.1,136.1,0,0,0,83.69,26.112a3.894,3.894,0,0,0-2.3,4.581c.549,1.862,2.3,3.265,4.048,2.6a66.37,66.37,0,0,0,21.337-13.258,31.842,31.842,0,0,0,4.169-4.252,6.968,6.968,0,0,0,.806-7.573c-2.37-4.233-7.427-3.2-11-2.228C84.925,10.265,70.11,18.117,54.56,23.418a111.022,111.022,0,0,1-13.285,3.724c-1.1.223-2.194.434-3.291.621l-.686.1c.549-.093-.324.043-.384.05-.444.062-.894.112-1.344.13a12.431,12.431,0,0,1-1.36,0s-.894-.118-.362,0-.241-.068-.335-.093c-.208-.056-.406-.143-.614-.2s-.159-.062.2.1a3.645,3.645,0,0,1-.324-.2c-.1-.074-.461-.459-.176-.112s-.318-.453-.373-.534v5.276a49.786,49.786,0,0,1,6.1-6.828c.516-.49,1.037-.968,1.558-1.44l.905-.807c.1-.087,1.042-.919.472-.422,1.1-.962,2.194-1.912,3.291-2.874,4.81-4.165,9.434-8.51,12.747-14.32C58.887,2.817,56.271-.746,53.589.111A107.5,107.5,0,0,0,10.509,26.764,113.61,113.61,0,0,0,.938,37.638a4.177,4.177,0,0,0,0,5.27A3.071,3.071,0,0,0,5.595,42.908Z" transform="translate(0 0.019)" fill="#fcc46b"/>
</svg>
