<svg xmlns="http://www.w3.org/2000/svg" width="331.647" height="640" viewBox="0 0 331.647 640">
  <g id="plantz_ui_interface" transform="translate(-554 -130)">
    <g id="Tracé_300" data-name="Tracé 300" transform="translate(554 130)" fill="#52b375">
      <path d="M 291.6474914550781 637 L 39.99998092651367 637 C 35.00373077392578 637 30.15847969055176 636.0221557617188 25.59881401062012 634.0935668945312 C 21.19331359863281 632.2301635742188 17.23606300354004 629.5618896484375 13.83706378936768 626.1630249023438 C 10.438063621521 622.7639770507812 7.769814014434814 618.8067626953125 5.906397342681885 614.4011840820312 C 3.977813720703125 609.8416137695312 2.999980449676514 604.996337890625 2.999980449676514 600 L 2.999980449676514 40 C 2.999980449676514 35.00366592407227 3.977813720703125 30.15841674804688 5.906397342681885 25.59883308410645 C 7.769814014434814 21.19325065612793 10.438063621521 17.23600006103516 13.83706378936768 13.83699989318848 C 17.23606300354004 10.43808364868164 21.19331359863281 7.769833564758301 25.59881401062012 5.906416893005371 C 30.15847969055176 3.977833271026611 35.00373077392578 3 39.99998092651367 3 L 291.6474914550781 3 C 296.643798828125 3 301.4890747070312 3.977833271026611 306.0486450195312 5.906416893005371 C 310.4542236328125 7.769833564758301 314.4114685058594 10.43808364868164 317.8104858398438 13.83699989318848 C 321.2094116210938 17.23600006103516 323.8776550292969 21.19325065612793 325.7410583496094 25.59883308410645 C 327.6696472167969 30.15841674804688 328.6474914550781 35.00366592407227 328.6474914550781 40 L 328.6474914550781 600 C 328.6474914550781 604.996337890625 327.6696472167969 609.8416137695312 325.7410583496094 614.4011840820312 C 323.8776550292969 618.8067626953125 321.2094116210938 622.7639770507812 317.8104858398438 626.1630249023438 C 314.4114685058594 629.5618896484375 310.4542236328125 632.2301635742188 306.0486450195312 634.0935668945312 C 301.4890747070312 636.0221557617188 296.643798828125 637 291.6474914550781 637 Z" stroke="none"/>
      <path d="M 39.99996948242188 6 C 21.2523193359375 6 5.999969482421875 21.2523193359375 5.999969482421875 40 L 5.999969482421875 600 C 5.999969482421875 618.7476806640625 21.2523193359375 634 39.99996948242188 634 L 291.6474914550781 634 C 310.3951416015625 634 325.6474914550781 618.7476806640625 325.6474914550781 600 L 325.6474914550781 40 C 325.6474914550781 21.2523193359375 310.3951416015625 6 291.6474914550781 6 L 39.99996948242188 6 M 39.99996948242188 0 L 291.6474914550781 0 C 313.7388916015625 0 331.6474914550781 17.9085693359375 331.6474914550781 40 L 331.6474914550781 600 C 331.6474914550781 622.09130859375 313.7388916015625 640 291.6474914550781 640 L 39.99996948242188 640 C 17.9085693359375 640 -3.0517578125e-05 622.09130859375 -3.0517578125e-05 600 L -3.0517578125e-05 40 C -3.0517578125e-05 17.9085693359375 17.9085693359375 0 39.99996948242188 0 Z" stroke="none" fill="#f1f1f1"/>
    </g>
    <g id="Calque_2" data-name="Calque 2" transform="translate(646.673 393)">
      <g id="Calque_1" data-name="Calque 1">
        <path id="Tracé_1" data-name="Tracé 1" d="M8.711,37.288H0V4.13H14.82q5.97,0,9.425,2.916T27.7,15.792a9.486,9.486,0,0,1-3.545,7.8,14.443,14.443,0,0,1-9.332,2.865H8.711ZM13.5,10.726H8.711v9.954H13.5a7.779,7.779,0,0,0,4.481-1.267,4.235,4.235,0,0,0,1.866-3.74,4.161,4.161,0,0,0-1.836-3.74A8.032,8.032,0,0,0,13.5,10.726Z" transform="translate(0 -3.174)" fill="#fff"/>
        <path id="Tracé_2" data-name="Tracé 2" d="M131.19,37.288V4.13h8.461V37.288Z" transform="translate(-102.452 -3.174)" fill="#fff"/>
        <path id="Tracé_3" data-name="Tracé 3" d="M191.582,70.54q-5.287,0-7.311-3.515t-2.022-9.55a25.261,25.261,0,0,1,.871-7.03,8.931,8.931,0,0,1,2.925-4.631,8.613,8.613,0,0,1,5.537-1.649,10.172,10.172,0,0,1,4.138.716,7.836,7.836,0,0,1,2.45,1.644,3.907,3.907,0,0,1,.85,2.239h.771v-4.6h8.959V69.917h-8.959V66.444h-.771a3.779,3.779,0,0,1-.94,2.052,6.982,6.982,0,0,1-2.489,1.431A11.137,11.137,0,0,1,191.582,70.54Zm3.673-7.155a4.648,4.648,0,0,0,3.08-.838,3.724,3.724,0,0,0,1.225-2.214,16.123,16.123,0,0,0,0-5.632,3.564,3.564,0,0,0-1.213-2.147,4.786,4.786,0,0,0-3.08-.808,4.616,4.616,0,0,0-3.08.841,3.649,3.649,0,0,0-1.213,2.147,14.886,14.886,0,0,0-.25,2.8,15.372,15.372,0,0,0,.25,2.83,3.677,3.677,0,0,0,1.213,2.179A4.57,4.57,0,0,0,195.255,63.385Z" transform="translate(-142.647 -35.803)" fill="#fff"/>
        <path id="Tracé_4" data-name="Tracé 4" d="M314.17,69.886V44.129h8.959v4.594h.769a3.356,3.356,0,0,1,.912-2.239,7.567,7.567,0,0,1,2.457-1.649,9.979,9.979,0,0,1,4.076-.716,8.92,8.92,0,0,1,4.511,1,6.964,6.964,0,0,1,2.614,2.591,10.4,10.4,0,0,1,1.211,3.423,23.688,23.688,0,0,1,.343,3.545q.03,1.711.032,2.895V69.886h-8.461V57.507a16.439,16.439,0,0,0-.218-2.677,4.4,4.4,0,0,0-1.091-2.269,3.875,3.875,0,0,0-2.985-.966,3.783,3.783,0,0,0-2.925.966,4.2,4.2,0,0,0-1.058,2.269,18.822,18.822,0,0,0-.188,2.677V69.886Z" transform="translate(-245.88 -35.772)" fill="#fff"/>
        <path id="Tracé_5" data-name="Tracé 5" d="M448.386,46.41a9.607,9.607,0,0,1-5.91-1.641q-2.179-1.641-2.177-5.978V27.711h-3.61V22.143a7.332,7.332,0,0,0,2.582-.41A3.045,3.045,0,0,0,440.953,20a10.254,10.254,0,0,0,.59-4h6.843v6.143h5.789v5.568h-5.789V40.146h5.974v6.27Z" transform="translate(-341.396 -12.295)" fill="#fff"/>
        <path id="Tracé_6" data-name="Tracé 6" d="M525.86,69.917V63.7l13.695-13.252H526.731V44.16h22.71v6.1l-13.2,13.315h13.2v6.345Z" transform="translate(-411.978 -35.803)" fill="#fff"/>
        <path id="Tracé_7" data-name="Tracé 7" d="M633.117,0V.695H631.8V4.126h-.82V.695H629.66V0Zm4.462,4.126L637.427,1.7c-.014-.32-.014-.713-.03-1.158h-.046c-.1.364-.232.85-.347,1.23l-.743,2.29h-.85l-.743-2.348c-.076-.317-.2-.8-.289-1.158h-.044c0,.38-.016.773-.032,1.158L634.15,4.14h-.79L633.675,0h1.23l.713,2.017c.09.32.167.623.273,1.047h.014c.107-.377.2-.727.289-1.03L636.9,0h1.179l.32,4.126Z" transform="translate(-491.741)" fill="#fff"/>
      </g>
    </g>
  </g>
</svg>
